<svg width="244" height="33" viewBox="0 0 244 33" fill="none" xmlns="http://www.w3.org/2000/svg">
<path d="M69.852 4H76.905V31.451H69.852V20.902H62.0461V31.451H54.9535V4H62.0461V14.1569H69.852V4Z" fill="#57595B"/>
<path d="M92.6371 32C89.705 32 87.2087 31.0065 85.1482 29.0196C83.0878 27.0065 82.0576 24.549 82.0576 21.6471C82.0576 18.7451 83.0878 16.3007 85.1482 14.3137C87.2087 12.3007 89.705 11.2941 92.6371 11.2941C95.5957 11.2941 98.0919 12.3007 100.126 14.3137C102.186 16.3007 103.217 18.7451 103.217 21.6471C103.217 24.549 102.186 27.0065 100.126 29.0196C98.0919 31.0065 95.5957 32 92.6371 32ZM92.6371 25.7255C93.7994 25.7255 94.7504 25.3464 95.49 24.5882C96.2561 23.8301 96.6391 22.8497 96.6391 21.6471C96.6391 20.4444 96.2561 19.4641 95.49 18.7059C94.7504 17.9477 93.7994 17.5686 92.6371 17.5686C91.5012 17.5686 90.5503 17.9477 89.7842 18.7059C89.0446 19.4641 88.6747 20.4444 88.6747 21.6471C88.6747 22.8497 89.0446 23.8301 89.7842 24.5882C90.5503 25.3464 91.5012 25.7255 92.6371 25.7255Z" fill="#57595B"/>
<path d="M113.926 17.5686C113.926 17.9346 114.257 18.2353 114.917 18.4706C115.604 18.7059 116.423 18.9281 117.374 19.1373C118.351 19.3464 119.315 19.6471 120.266 20.0392C121.244 20.4052 122.062 21.0458 122.723 21.9608C123.41 22.8758 123.753 24.0261 123.753 25.4118C123.753 27.6601 122.908 29.3203 121.217 30.3922C119.527 31.4641 117.519 32 115.194 32C110.757 32 107.798 30.4444 106.319 27.3333L112.064 24.4706C112.566 25.9085 113.596 26.6275 115.155 26.6275C116.343 26.6275 116.938 26.2745 116.938 25.5686C116.938 25.2026 116.608 24.902 115.947 24.6667C115.287 24.4314 114.481 24.1961 113.53 23.9608C112.579 23.7255 111.628 23.4118 110.677 23.0196C109.726 22.6275 108.921 22 108.26 21.1373C107.6 20.2484 107.27 19.1634 107.27 17.8824C107.27 15.7908 108.049 14.1699 109.607 13.0196C111.166 11.8693 113.041 11.2941 115.234 11.2941C119.144 11.2941 121.864 12.8105 123.396 15.8431L117.849 18.3137C117.268 17.1895 116.449 16.6275 115.393 16.6275C114.415 16.6275 113.926 16.9412 113.926 17.5686Z" fill="#57595B"/>
<path d="M140 18.0784H135.879V23.7647C135.879 24.6275 136.196 25.1634 136.83 25.3725C137.464 25.5817 138.521 25.6471 140 25.5686V31.451C136.064 31.9216 133.29 31.5686 131.679 30.3922C130.094 29.1895 129.302 27.0327 129.302 23.9216V18.0784H126.33V11.8431H129.302V8.31373L135.879 6.35294V11.8431H140V18.0784Z" fill="#57595B"/>
<path d="M39.908 4.61002C42.6458 4.61002 44.9446 5.49194 46.8042 7.25577C48.6639 9.01961 49.5937 11.2691 49.5937 14.0044C49.5937 16.7396 48.6639 18.9891 46.8042 20.7529C44.9446 22.5168 42.6458 23.3987 39.908 23.3987H36.3049V31.451H29L29.8805 4.61002H39.908ZM39.908 16.8802C40.6828 16.8802 41.3286 16.6118 41.8451 16.0749C42.3875 15.5381 42.6587 14.8479 42.6587 14.0044C42.6587 13.1608 42.3875 12.4834 41.8451 11.9721C41.3286 11.4353 40.6828 11.1669 39.908 11.1669H36.3049V16.8802H39.908Z" fill="#57595B"/>
<path d="M30.1136 31.5L36.5 4.5H29.7189L26.4244 22.0099L24 31.5H30.1136Z" fill="url(#paint0_linear)"/>
<path d="M11 31.5L13.598 21.51L17.723 4.5H22.376L26.501 21.51L29 31.5H23.762L20.066 16.2643L16.37 31.5H11Z" fill="#41BBC3"/>
<path d="M9.88647 31.5L3 4.50004H9.78107L13.5757 21.51L16 31.5H9.88647Z" fill="url(#paint1_linear)"/>
<defs>
<linearGradient id="paint0_linear" x1="36.7764" y1="4.82472" x2="22.0157" y2="30.8757" gradientUnits="userSpaceOnUse">
<stop stop-color="#34B8B7"/>
<stop offset="1" stop-color="#404949"/>
</linearGradient>
<linearGradient id="paint1_linear" x1="3" y1="4.82472" x2="18.2229" y2="31.7178" gradientUnits="userSpaceOnUse">
<stop stop-color="#39BABA"/>
<stop offset="1" stop-color="#339494"/>
</linearGradient>
</defs>
</svg>
